# xmcd CD database file
#
# Track frame offsets:
#	150
#	13557
#	27244
#	40204
#	52476
#	63976
#	76562
#	89396
#	102491
#	115822
#	128914
#	143102
#	158448
#	172663
#	188457
#	203152
#	217372
#	233255
#	246387
#	260441
#	275972
#	292076
#	306357
#	322146
#	336121
#
# Disc length: 4689 seconds
#
# Revision: 0
# Processed by: cddbd v1.5.2PL0 Copyright (c) Steve Scherf et al.
# Submitted via: CDex 1.70beta2
#
DISCID=6e124f19
DTITLE=Jelly Roll Morton - Doctor Jazz - Black Bottom Stomp [CD2]
DYEAR=1900
DGENRE=Jazz
TTITLE0=Bucktown Blues
TTITLE1=Tom Cat Blues
TTITLE2=Stratford Hunch
TTITLE3=Perfect Rag
TTITLE4=King Porter Stomp
TTITLE5=Tom Cat Blues
TTITLE6=The Pearls
TTITLE7=Sweetheart O'Mine
TTITLE8=Fat Meat And Greens
TTITLE9=King Porter Stomp
TTITLE10=Black Bottom Stomp
TTITLE11=Smoke-House Blues
TTITLE12=The Chant
TTITLE13=Sidewalk Blues
TTITLE14=Dead Man Blues
TTITLE15=Steamboat Stomp
TTITLE16=Someday, Sweetheart
TTITLE17=Grandpa's Spells
TTITLE18=Original Jelly Roll Blues
TTITLE19=Doctor Jazz
TTITLE20=Cannon Ball Blues
TTITLE21=Hyena Stomp
TTITLE22=Billy Goat Stomp
TTITLE23=Wild Man Blues
TTITLE24=Jungle Blues
EXTD=
EXTT0=
EXTT1=
EXTT2=
EXTT3=
EXTT4=
EXTT5=
EXTT6=
EXTT7=
EXTT8=
EXTT9=
EXTT10=
EXTT11=
EXTT12=
EXTT13=
EXTT14=
EXTT15=
EXTT16=
EXTT17=
EXTT18=
EXTT19=
EXTT20=
EXTT21=
EXTT22=
EXTT23=
EXTT24=
PLAYORDER=
